<?xml version="1.0" encoding="iso-8859-1"?>
<!-- Generator: Adobe Illustrator 19.0.0, SVG Export Plug-In . SVG Version: 6.00 Build 0)  -->
<svg version="1.1" id="Layer_1" xmlns="http://www.w3.org/2000/svg" xmlns:xlink="http://www.w3.org/1999/xlink" x="0px" y="0px"
	 viewBox="0 0 512.001 512.001" style="enable-background:new 0 0 512.001 512.001;" xml:space="preserve">
<g>
	<g>
		<path d="M299.277,256.152H160.095v255.849h191.811V308.781L299.277,256.152z M303.143,282.231l30.291,30.292h-30.291V282.231z
			 M336.198,496.294H175.802V271.859h111.634v56.371h48.762V496.294z"/>
	</g>
</g>
<g>
	<g>
		<path d="M0,0.001v223.83h222.126l33.875,16.936l33.875-16.936h222.126V0.001H0z M496.293,208.123H286.166l-30.167,15.083
			l-30.167-15.083H15.707V15.707h480.586V208.123z"/>
	</g>
</g>
<g>
	<g>
		<path d="M64.037,79.746h95.755V32.02H64.037V79.746z M79.744,47.727h64.341v16.312H79.744V47.727z"/>
	</g>
</g>
<g>
	<g>
		<path d="M64.037,88.052v47.726H207.82V88.052H64.037z M192.113,120.071H79.744v-16.312h112.369V120.071z"/>
	</g>
</g>
<g>
	<g>
		<path d="M64.037,144.086v47.726h63.735v-47.726H64.037z M112.066,176.105H79.744v-16.312h32.322V176.105z"/>
	</g>
</g>
<g>
	<g>
		<rect x="39.267" y="31.893" width="15.707" height="160.21"/>
	</g>
</g>
<g>
	<g>
		<path d="M435.358,176.397l-16.284-16.28c12.927-13.615,20.885-31.992,20.885-52.203c0-41.847-34.046-75.894-75.895-75.894
			c-20.2,0-38.568,7.949-52.18,20.863L299.279,40.27h-67.341v15.707h60.831l8.858,8.863c-8.475,12.246-13.457,27.086-13.457,43.074
			c0,41.848,34.046,75.895,75.894,75.895c15.976,0,30.806-4.974,43.048-13.438l21.739,21.734h51.256v-15.707H435.358z
			 M312.957,76.177L330.469,93.7l11.109-11.104l-18.597-18.608c9.525-8.914,21.932-14.772,35.66-16.004v56.162h-54.634
			C304.643,93.927,307.835,84.394,312.957,76.177z M389.616,130.668l-11.105,11.107l17.265,17.261
			c-9.216,5.737-20.081,9.064-31.712,9.064c-29.101,0-53.439-20.761-58.993-48.248h69.277V48.624
			c28.303,4.895,49.903,29.61,49.903,59.289c0,15.882-6.195,30.337-16.281,41.104L389.616,130.668z"/>
	</g>
</g>
<g>
	<g>
		<rect x="448.694" y="152.316" width="31.414" height="15.707"/>
	</g>
</g>
<g>
	<g>
		<rect x="464.401" y="129.279" width="15.707" height="15.707"/>
	</g>
</g>
<g>
	<g>
		<rect x="231.939" y="64.357" width="40.838" height="15.707"/>
	</g>
</g>
<g>
	<g>
		<rect x="231.939" y="87.394" width="16.754" height="15.707"/>
	</g>
</g>
<g>
	<g>
		<rect x="200.525" y="296.819" width="72.252" height="15.707"/>
	</g>
</g>
<g>
	<g>
		<rect x="200.525" y="328.233" width="79.582" height="15.707"/>
	</g>
</g>
<g>
	<g>
		<rect x="200.525" y="359.647" width="110.995" height="15.707"/>
	</g>
</g>
<g>
	<g>
		<rect x="200.525" y="393.155" width="110.995" height="15.707"/>
	</g>
</g>
<g>
	<g>
		<rect x="200.525" y="424.569" width="110.995" height="15.707"/>
	</g>
</g>
<g>
	<g>
		<rect x="200.525" y="457.03" width="110.995" height="15.707"/>
	</g>
</g>
<g>
</g>
<g>
</g>
<g>
</g>
<g>
</g>
<g>
</g>
<g>
</g>
<g>
</g>
<g>
</g>
<g>
</g>
<g>
</g>
<g>
</g>
<g>
</g>
<g>
</g>
<g>
</g>
<g>
</g>
</svg>
